<svg width="270" height="80" viewBox="0 0 270 80" fill="none" xmlns="http://www.w3.org/2000/svg">
<g filter="url(#filter0_d_23_61)">
<rect x="9" y="9" width="244" height="54" rx="3" fill="#252020"/>
</g>
<path d="M42.7109 50.5703C42.8359 50.9141 42.8984 51.1953 42.8984 51.4141C42.9141 51.6172 42.8594 51.7734 42.7344 51.8828C42.6094 51.9922 42.3984 52.0625 42.1016 52.0938C41.8203 52.125 41.4375 52.1406 40.9531 52.1406C40.4688 52.1406 40.0781 52.125 39.7812 52.0938C39.5 52.0781 39.2812 52.0469 39.125 52C38.9844 51.9375 38.875 51.8594 38.7969 51.7656C38.7344 51.6719 38.6719 51.5547 38.6094 51.4141L36.0078 44.0312H23.3984L20.9141 51.3203C20.8672 51.4609 20.8047 51.5859 20.7266 51.6953C20.6484 51.7891 20.5312 51.875 20.375 51.9531C20.2344 52.0156 20.0234 52.0625 19.7422 52.0938C19.4766 52.125 19.125 52.1406 18.6875 52.1406C18.2344 52.1406 17.8594 52.1172 17.5625 52.0703C17.2812 52.0391 17.0781 51.9688 16.9531 51.8594C16.8438 51.75 16.7891 51.5938 16.7891 51.3906C16.8047 51.1719 16.875 50.8906 17 50.5469L27.1719 22.375C27.2344 22.2031 27.3125 22.0625 27.4062 21.9531C27.5156 21.8438 27.6641 21.7578 27.8516 21.6953C28.0547 21.6328 28.3047 21.5938 28.6016 21.5781C28.9141 21.5469 29.3047 21.5312 29.7734 21.5312C30.2734 21.5312 30.6875 21.5469 31.0156 21.5781C31.3438 21.5938 31.6094 21.6328 31.8125 21.6953C32.0156 21.7578 32.1719 21.8516 32.2812 21.9766C32.3906 22.0859 32.4766 22.2266 32.5391 22.3984L42.7109 50.5703ZM29.6562 25.7031H29.6328L24.4062 40.8203H34.9531L29.6562 25.7031ZM65.5156 51.4141C65.5156 51.5391 65.4844 51.6484 65.4219 51.7422C65.3594 51.8203 65.2578 51.8906 65.1172 51.9531C64.9766 52.0156 64.7812 52.0625 64.5312 52.0938C64.2812 52.125 63.9688 52.1406 63.5938 52.1406C63.2031 52.1406 62.8828 52.125 62.6328 52.0938C62.3828 52.0625 62.1875 52.0156 62.0469 51.9531C61.9062 51.8906 61.8047 51.8203 61.7422 51.7422C61.6797 51.6484 61.6484 51.5391 61.6484 51.4141V39.0625C61.6484 37.8594 61.5547 36.8906 61.3672 36.1562C61.1797 35.4219 60.9062 34.7891 60.5469 34.2578C60.1875 33.7266 59.7188 33.3203 59.1406 33.0391C58.5781 32.7578 57.9219 32.6172 57.1719 32.6172C56.2031 32.6172 55.2344 32.9609 54.2656 33.6484C53.2969 34.3359 52.2812 35.3438 51.2188 36.6719V51.4141C51.2188 51.5391 51.1875 51.6484 51.125 51.7422C51.0625 51.8203 50.9609 51.8906 50.8203 51.9531C50.6797 52.0156 50.4844 52.0625 50.2344 52.0938C49.9844 52.125 49.6641 52.1406 49.2734 52.1406C48.8984 52.1406 48.5859 52.125 48.3359 52.0938C48.0859 52.0625 47.8828 52.0156 47.7266 51.9531C47.5859 51.8906 47.4844 51.8203 47.4219 51.7422C47.375 51.6484 47.3516 51.5391 47.3516 51.4141V30.3203C47.3516 30.1953 47.375 30.0938 47.4219 30.0156C47.4688 29.9219 47.5625 29.8438 47.7031 29.7812C47.8438 29.7031 48.0234 29.6562 48.2422 29.6406C48.4609 29.6094 48.75 29.5938 49.1094 29.5938C49.4531 29.5938 49.7344 29.6094 49.9531 29.6406C50.1875 29.6562 50.3672 29.7031 50.4922 29.7812C50.6172 29.8438 50.7031 29.9219 50.75 30.0156C50.8125 30.0938 50.8438 30.1953 50.8438 30.3203V33.1094C52.0312 31.7812 53.2109 30.8125 54.3828 30.2031C55.5703 29.5781 56.7656 29.2656 57.9688 29.2656C59.375 29.2656 60.5547 29.5078 61.5078 29.9922C62.4766 30.4609 63.2578 31.0938 63.8516 31.8906C64.4453 32.6875 64.8672 33.625 65.1172 34.7031C65.3828 35.7656 65.5156 37.0469 65.5156 38.5469V51.4141ZM76.4375 51.4141C76.4375 51.5391 76.4062 51.6484 76.3438 51.7422C76.2812 51.8203 76.1797 51.8906 76.0391 51.9531C75.8984 52.0156 75.7031 52.0625 75.4531 52.0938C75.2031 52.125 74.8828 52.1406 74.4922 52.1406C74.1172 52.1406 73.8047 52.125 73.5547 52.0938C73.3047 52.0625 73.1016 52.0156 72.9453 51.9531C72.8047 51.8906 72.7031 51.8203 72.6406 51.7422C72.5938 51.6484 72.5703 51.5391 72.5703 51.4141V30.3203C72.5703 30.2109 72.5938 30.1094 72.6406 30.0156C72.7031 29.9219 72.8047 29.8438 72.9453 29.7812C73.1016 29.7188 73.3047 29.6719 73.5547 29.6406C73.8047 29.6094 74.1172 29.5938 74.4922 29.5938C74.8828 29.5938 75.2031 29.6094 75.4531 29.6406C75.7031 29.6719 75.8984 29.7188 76.0391 29.7812C76.1797 29.8438 76.2812 29.9219 76.3438 30.0156C76.4062 30.1094 76.4375 30.2109 76.4375 30.3203V51.4141ZM76.8828 23.1953C76.8828 24.1016 76.7109 24.7188 76.3672 25.0469C76.0234 25.375 75.3906 25.5391 74.4688 25.5391C73.5625 25.5391 72.9375 25.3828 72.5938 25.0703C72.2656 24.7422 72.1016 24.1328 72.1016 23.2422C72.1016 22.3359 72.2734 21.7188 72.6172 21.3906C72.9609 21.0625 73.5938 20.8984 74.5156 20.8984C75.4219 20.8984 76.0391 21.0625 76.3672 21.3906C76.7109 21.7031 76.8828 22.3047 76.8828 23.1953ZM114.875 51.4141C114.875 51.5391 114.844 51.6484 114.781 51.7422C114.719 51.8203 114.617 51.8906 114.477 51.9531C114.336 52.0156 114.141 52.0625 113.891 52.0938C113.641 52.125 113.328 52.1406 112.953 52.1406C112.562 52.1406 112.242 52.125 111.992 52.0938C111.742 52.0625 111.539 52.0156 111.383 51.9531C111.242 51.8906 111.141 51.8203 111.078 51.7422C111.016 51.6484 110.984 51.5391 110.984 51.4141V38.5938C110.984 37.7031 110.906 36.8906 110.75 36.1562C110.594 35.4219 110.344 34.7891 110 34.2578C109.656 33.7266 109.219 33.3203 108.688 33.0391C108.156 32.7578 107.531 32.6172 106.812 32.6172C105.922 32.6172 105.023 32.9609 104.117 33.6484C103.227 34.3359 102.242 35.3438 101.164 36.6719V51.4141C101.164 51.5391 101.133 51.6484 101.07 51.7422C101.008 51.8203 100.898 51.8906 100.742 51.9531C100.602 52.0156 100.406 52.0625 100.156 52.0938C99.9062 52.125 99.5938 52.1406 99.2188 52.1406C98.8594 52.1406 98.5469 52.125 98.2812 52.0938C98.0312 52.0625 97.8281 52.0156 97.6719 51.9531C97.5312 51.8906 97.4297 51.8203 97.3672 51.7422C97.3203 51.6484 97.2969 51.5391 97.2969 51.4141V38.5938C97.2969 37.7031 97.2109 36.8906 97.0391 36.1562C96.8672 35.4219 96.6094 34.7891 96.2656 34.2578C95.9219 33.7266 95.4844 33.3203 94.9531 33.0391C94.4375 32.7578 93.8203 32.6172 93.1016 32.6172C92.2109 32.6172 91.3125 32.9609 90.4062 33.6484C89.5 34.3359 88.5156 35.3438 87.4531 36.6719V51.4141C87.4531 51.5391 87.4219 51.6484 87.3594 51.7422C87.2969 51.8203 87.1953 51.8906 87.0547 51.9531C86.9141 52.0156 86.7188 52.0625 86.4688 52.0938C86.2188 52.125 85.8984 52.1406 85.5078 52.1406C85.1328 52.1406 84.8203 52.125 84.5703 52.0938C84.3203 52.0625 84.1172 52.0156 83.9609 51.9531C83.8203 51.8906 83.7188 51.8203 83.6562 51.7422C83.6094 51.6484 83.5859 51.5391 83.5859 51.4141V30.3203C83.5859 30.1953 83.6094 30.0938 83.6562 30.0156C83.7031 29.9219 83.7969 29.8438 83.9375 29.7812C84.0781 29.7031 84.2578 29.6562 84.4766 29.6406C84.6953 29.6094 84.9844 29.5938 85.3438 29.5938C85.6875 29.5938 85.9688 29.6094 86.1875 29.6406C86.4219 29.6562 86.6016 29.7031 86.7266 29.7812C86.8516 29.8438 86.9375 29.9219 86.9844 30.0156C87.0469 30.0938 87.0781 30.1953 87.0781 30.3203V33.1094C88.2656 31.7812 89.4141 30.8125 90.5234 30.2031C91.6484 29.5781 92.7812 29.2656 93.9219 29.2656C94.7969 29.2656 95.5781 29.3672 96.2656 29.5703C96.9688 29.7734 97.5859 30.0625 98.1172 30.4375C98.6484 30.7969 99.1016 31.2344 99.4766 31.75C99.8516 32.25 100.164 32.8125 100.414 33.4375C101.117 32.6719 101.781 32.0234 102.406 31.4922C103.047 30.9609 103.656 30.5312 104.234 30.2031C104.828 29.875 105.398 29.6406 105.945 29.5C106.508 29.3438 107.07 29.2656 107.633 29.2656C108.992 29.2656 110.133 29.5078 111.055 29.9922C111.977 30.4609 112.719 31.0938 113.281 31.8906C113.859 32.6875 114.266 33.625 114.5 34.7031C114.75 35.7656 114.875 36.8906 114.875 38.0781V51.4141ZM137.82 51.4375C137.82 51.625 137.758 51.7656 137.633 51.8594C137.508 51.9531 137.336 52.0234 137.117 52.0703C136.898 52.1172 136.578 52.1406 136.156 52.1406C135.75 52.1406 135.422 52.1172 135.172 52.0703C134.938 52.0234 134.766 51.9531 134.656 51.8594C134.547 51.7656 134.492 51.625 134.492 51.4375V49.3281C133.57 50.3125 132.539 51.0781 131.398 51.625C130.273 52.1719 129.078 52.4453 127.812 52.4453C126.703 52.4453 125.695 52.2969 124.789 52C123.898 51.7188 123.133 51.3047 122.492 50.7578C121.867 50.2109 121.375 49.5391 121.016 48.7422C120.672 47.9453 120.5 47.0391 120.5 46.0234C120.5 44.8359 120.742 43.8047 121.227 42.9297C121.711 42.0547 122.406 41.3281 123.312 40.75C124.219 40.1719 125.328 39.7422 126.641 39.4609C127.953 39.1641 129.43 39.0156 131.07 39.0156H133.977V37.375C133.977 36.5625 133.891 35.8438 133.719 35.2188C133.547 34.5938 133.266 34.0781 132.875 33.6719C132.5 33.25 132.008 32.9375 131.398 32.7344C130.789 32.5156 130.039 32.4062 129.148 32.4062C128.195 32.4062 127.336 32.5234 126.57 32.7578C125.82 32.9766 125.156 33.2266 124.578 33.5078C124.016 33.7734 123.539 34.0234 123.148 34.2578C122.773 34.4766 122.492 34.5859 122.305 34.5859C122.18 34.5859 122.07 34.5547 121.977 34.4922C121.883 34.4297 121.797 34.3359 121.719 34.2109C121.656 34.0859 121.609 33.9297 121.578 33.7422C121.547 33.5391 121.531 33.3203 121.531 33.0859C121.531 32.6953 121.555 32.3906 121.602 32.1719C121.664 31.9375 121.797 31.7188 122 31.5156C122.219 31.3125 122.586 31.0781 123.102 30.8125C123.617 30.5312 124.211 30.2812 124.883 30.0625C125.555 29.8281 126.289 29.6406 127.086 29.5C127.883 29.3438 128.688 29.2656 129.5 29.2656C131.016 29.2656 132.305 29.4375 133.367 29.7812C134.43 30.125 135.289 30.6328 135.945 31.3047C136.602 31.9609 137.078 32.7812 137.375 33.7656C137.672 34.75 137.82 35.8984 137.82 37.2109V51.4375ZM133.977 41.8047H130.672C129.609 41.8047 128.688 41.8984 127.906 42.0859C127.125 42.2578 126.477 42.5234 125.961 42.8828C125.445 43.2266 125.062 43.6484 124.812 44.1484C124.578 44.6328 124.461 45.1953 124.461 45.8359C124.461 46.9297 124.805 47.8047 125.492 48.4609C126.195 49.1016 127.172 49.4219 128.422 49.4219C129.438 49.4219 130.375 49.1641 131.234 48.6484C132.109 48.1328 133.023 47.3438 133.977 46.2812V41.8047ZM162.828 29.7109C163.297 29.7109 163.617 29.8203 163.789 30.0391C163.961 30.2422 164.047 30.5469 164.047 30.9531V51.4141C164.047 51.5391 164.016 51.6484 163.953 51.7422C163.891 51.8203 163.781 51.8906 163.625 51.9531C163.484 52.0156 163.289 52.0625 163.039 52.0938C162.789 52.125 162.484 52.1406 162.125 52.1406C161.734 52.1406 161.414 52.125 161.164 52.0938C160.914 52.0625 160.711 52.0156 160.555 51.9531C160.414 51.8906 160.312 51.8203 160.25 51.7422C160.188 51.6484 160.156 51.5391 160.156 51.4141V32.9219H149.258V44.6875C149.258 46.1406 149.469 47.2422 149.891 47.9922C150.328 48.7266 151.102 49.0938 152.211 49.0938C152.57 49.0938 152.891 49.0625 153.172 49C153.453 48.9219 153.703 48.8438 153.922 48.7656C154.141 48.6875 154.328 48.6172 154.484 48.5547C154.641 48.4766 154.781 48.4375 154.906 48.4375C154.984 48.4375 155.055 48.4609 155.117 48.5078C155.195 48.5391 155.25 48.6094 155.281 48.7188C155.328 48.8281 155.367 48.9766 155.398 49.1641C155.43 49.3516 155.445 49.5859 155.445 49.8672C155.445 50.3203 155.414 50.6797 155.352 50.9453C155.289 51.1953 155.195 51.3906 155.07 51.5312C154.945 51.6562 154.758 51.7734 154.508 51.8828C154.258 51.9922 153.969 52.0781 153.641 52.1406C153.328 52.2188 152.992 52.2812 152.633 52.3281C152.273 52.375 151.914 52.3984 151.555 52.3984C150.461 52.3984 149.523 52.2578 148.742 51.9766C147.961 51.6797 147.32 51.2422 146.82 50.6641C146.32 50.0703 145.953 49.3281 145.719 48.4375C145.5 47.5312 145.391 46.4688 145.391 45.25V32.9219H142.438C142.203 32.9219 142.016 32.7969 141.875 32.5469C141.734 32.2969 141.664 31.8906 141.664 31.3281C141.664 31.0312 141.68 30.7812 141.711 30.5781C141.758 30.375 141.812 30.2109 141.875 30.0859C141.938 29.9453 142.016 29.8516 142.109 29.8047C142.219 29.7422 142.336 29.7109 142.461 29.7109H145.391V24.6953C145.391 24.5859 145.414 24.4844 145.461 24.3906C145.523 24.2969 145.625 24.2188 145.766 24.1562C145.922 24.0781 146.125 24.0234 146.375 23.9922C146.625 23.9609 146.938 23.9453 147.312 23.9453C147.703 23.9453 148.023 23.9609 148.273 23.9922C148.523 24.0234 148.719 24.0781 148.859 24.1562C149 24.2188 149.102 24.2969 149.164 24.3906C149.227 24.4844 149.258 24.5859 149.258 24.6953V29.7109H162.828ZM164.492 23.1953C164.492 24.1016 164.32 24.7188 163.977 25.0469C163.633 25.375 163 25.5391 162.078 25.5391C161.172 25.5391 160.547 25.3828 160.203 25.0703C159.875 24.7422 159.711 24.1328 159.711 23.2422C159.711 22.3359 159.883 21.7188 160.227 21.3906C160.57 21.0625 161.203 20.8984 162.125 20.8984C163.031 20.8984 163.648 21.0625 163.977 21.3906C164.32 21.7031 164.492 22.3047 164.492 23.1953ZM190.859 40.6328C190.859 42.3516 190.633 43.9375 190.18 45.3906C189.727 46.8281 189.047 48.0703 188.141 49.1172C187.25 50.1641 186.125 50.9844 184.766 51.5781C183.422 52.1562 181.859 52.4453 180.078 52.4453C178.344 52.4453 176.828 52.1875 175.531 51.6719C174.25 51.1562 173.18 50.4062 172.32 49.4219C171.461 48.4375 170.82 47.2422 170.398 45.8359C169.977 44.4297 169.766 42.8359 169.766 41.0547C169.766 39.3359 169.984 37.7578 170.422 36.3203C170.875 34.8672 171.547 33.6172 172.438 32.5703C173.344 31.5234 174.469 30.7109 175.812 30.1328C177.156 29.5547 178.727 29.2656 180.523 29.2656C182.258 29.2656 183.766 29.5234 185.047 30.0391C186.344 30.5547 187.422 31.3047 188.281 32.2891C189.141 33.2734 189.781 34.4688 190.203 35.875C190.641 37.2812 190.859 38.8672 190.859 40.6328ZM186.781 40.8906C186.781 39.75 186.672 38.6719 186.453 37.6562C186.25 36.6406 185.906 35.75 185.422 34.9844C184.938 34.2188 184.281 33.6172 183.453 33.1797C182.625 32.7266 181.594 32.5 180.359 32.5C179.219 32.5 178.234 32.7031 177.406 33.1094C176.594 33.5156 175.922 34.0938 175.391 34.8438C174.859 35.5781 174.461 36.4531 174.195 37.4688C173.945 38.4844 173.82 39.5938 173.82 40.7969C173.82 41.9531 173.922 43.0391 174.125 44.0547C174.344 45.0703 174.695 45.9609 175.18 46.7266C175.68 47.4766 176.344 48.0781 177.172 48.5312C178 48.9688 179.031 49.1875 180.266 49.1875C181.391 49.1875 182.367 48.9844 183.195 48.5781C184.023 48.1719 184.703 47.6016 185.234 46.8672C185.766 46.1328 186.156 45.2578 186.406 44.2422C186.656 43.2266 186.781 42.1094 186.781 40.8906ZM214.719 51.4141C214.719 51.5391 214.688 51.6484 214.625 51.7422C214.562 51.8203 214.461 51.8906 214.32 51.9531C214.18 52.0156 213.984 52.0625 213.734 52.0938C213.484 52.125 213.172 52.1406 212.797 52.1406C212.406 52.1406 212.086 52.125 211.836 52.0938C211.586 52.0625 211.391 52.0156 211.25 51.9531C211.109 51.8906 211.008 51.8203 210.945 51.7422C210.883 51.6484 210.852 51.5391 210.852 51.4141V39.0625C210.852 37.8594 210.758 36.8906 210.57 36.1562C210.383 35.4219 210.109 34.7891 209.75 34.2578C209.391 33.7266 208.922 33.3203 208.344 33.0391C207.781 32.7578 207.125 32.6172 206.375 32.6172C205.406 32.6172 204.438 32.9609 203.469 33.6484C202.5 34.3359 201.484 35.3438 200.422 36.6719V51.4141C200.422 51.5391 200.391 51.6484 200.328 51.7422C200.266 51.8203 200.164 51.8906 200.023 51.9531C199.883 52.0156 199.688 52.0625 199.438 52.0938C199.188 52.125 198.867 52.1406 198.477 52.1406C198.102 52.1406 197.789 52.125 197.539 52.0938C197.289 52.0625 197.086 52.0156 196.93 51.9531C196.789 51.8906 196.688 51.8203 196.625 51.7422C196.578 51.6484 196.555 51.5391 196.555 51.4141V30.3203C196.555 30.1953 196.578 30.0938 196.625 30.0156C196.672 29.9219 196.766 29.8438 196.906 29.7812C197.047 29.7031 197.227 29.6562 197.445 29.6406C197.664 29.6094 197.953 29.5938 198.312 29.5938C198.656 29.5938 198.938 29.6094 199.156 29.6406C199.391 29.6562 199.57 29.7031 199.695 29.7812C199.82 29.8438 199.906 29.9219 199.953 30.0156C200.016 30.0938 200.047 30.1953 200.047 30.3203V33.1094C201.234 31.7812 202.414 30.8125 203.586 30.2031C204.773 29.5781 205.969 29.2656 207.172 29.2656C208.578 29.2656 209.758 29.5078 210.711 29.9922C211.68 30.4609 212.461 31.0938 213.055 31.8906C213.648 32.6875 214.07 33.625 214.32 34.7031C214.586 35.7656 214.719 37.0469 214.719 38.5469V51.4141ZM226.883 21.1094C226.883 21.5938 226.859 22.0391 226.812 22.4453C226.766 22.8359 226.688 23.2188 226.578 23.5938C226.469 23.9531 226.32 24.3125 226.133 24.6719C225.961 25.0156 225.742 25.375 225.477 25.75L222.266 30.5781C222.188 30.6875 222.094 30.7891 221.984 30.8828C221.891 30.9766 221.766 31.0547 221.609 31.1172C221.469 31.1641 221.297 31.2031 221.094 31.2344C220.906 31.25 220.664 31.2578 220.367 31.2578C220.102 31.2578 219.875 31.25 219.688 31.2344C219.516 31.2031 219.391 31.1641 219.312 31.1172C219.234 31.0547 219.188 30.9766 219.172 30.8828C219.172 30.7891 219.203 30.6719 219.266 30.5312L222.383 24.0859V21.1094C222.383 20.7031 222.422 20.375 222.5 20.125C222.594 19.875 222.734 19.6797 222.922 19.5391C223.109 19.3984 223.344 19.3047 223.625 19.2578C223.906 19.2109 224.25 19.1875 224.656 19.1875C225.047 19.1875 225.383 19.2109 225.664 19.2578C225.945 19.3047 226.172 19.3984 226.344 19.5391C226.531 19.6797 226.664 19.875 226.742 20.125C226.836 20.375 226.883 20.7031 226.883 21.1094ZM244.062 45.6719C244.062 46.75 243.859 47.7109 243.453 48.5547C243.062 49.3984 242.5 50.1094 241.766 50.6875C241.031 51.2656 240.156 51.7031 239.141 52C238.125 52.2969 237.008 52.4453 235.789 52.4453C235.039 52.4453 234.32 52.3828 233.633 52.2578C232.961 52.1484 232.352 52.0078 231.805 51.8359C231.273 51.6484 230.82 51.4609 230.445 51.2734C230.07 51.0703 229.797 50.8906 229.625 50.7344C229.453 50.5781 229.328 50.3594 229.25 50.0781C229.172 49.7969 229.133 49.4141 229.133 48.9297C229.133 48.6328 229.148 48.3828 229.18 48.1797C229.211 47.9766 229.25 47.8125 229.297 47.6875C229.344 47.5625 229.406 47.4766 229.484 47.4297C229.578 47.3672 229.68 47.3359 229.789 47.3359C229.961 47.3359 230.211 47.4453 230.539 47.6641C230.883 47.8672 231.297 48.0938 231.781 48.3438C232.281 48.5938 232.867 48.8281 233.539 49.0469C234.211 49.25 234.984 49.3516 235.859 49.3516C236.516 49.3516 237.109 49.2812 237.641 49.1406C238.172 49 238.633 48.7969 239.023 48.5312C239.414 48.25 239.711 47.8984 239.914 47.4766C240.133 47.0547 240.242 46.5547 240.242 45.9766C240.242 45.3828 240.086 44.8828 239.773 44.4766C239.477 44.0703 239.078 43.7109 238.578 43.3984C238.078 43.0859 237.516 42.8125 236.891 42.5781C236.266 42.3281 235.617 42.0703 234.945 41.8047C234.289 41.5391 233.641 41.2422 233 40.9141C232.375 40.5703 231.812 40.1562 231.312 39.6719C230.812 39.1875 230.406 38.6094 230.094 37.9375C229.797 37.2656 229.648 36.4609 229.648 35.5234C229.648 34.6953 229.805 33.9062 230.117 33.1562C230.445 32.3906 230.93 31.7266 231.57 31.1641C232.211 30.5859 233.008 30.125 233.961 29.7812C234.93 29.4375 236.055 29.2656 237.336 29.2656C237.898 29.2656 238.461 29.3125 239.023 29.4062C239.586 29.5 240.094 29.6172 240.547 29.7578C241 29.8984 241.383 30.0547 241.695 30.2266C242.023 30.3828 242.266 30.5234 242.422 30.6484C242.594 30.7734 242.703 30.8828 242.75 30.9766C242.812 31.0703 242.852 31.1797 242.867 31.3047C242.898 31.4141 242.922 31.5547 242.938 31.7266C242.969 31.8984 242.984 32.1094 242.984 32.3594C242.984 32.625 242.969 32.8594 242.938 33.0625C242.922 33.25 242.883 33.4062 242.82 33.5312C242.773 33.6562 242.711 33.75 242.633 33.8125C242.555 33.8594 242.469 33.8828 242.375 33.8828C242.234 33.8828 242.031 33.7969 241.766 33.625C241.5 33.4531 241.156 33.2734 240.734 33.0859C240.312 32.8828 239.812 32.6953 239.234 32.5234C238.672 32.3516 238.023 32.2656 237.289 32.2656C236.633 32.2656 236.055 32.3438 235.555 32.5C235.055 32.6406 234.641 32.8516 234.312 33.1328C234 33.3984 233.758 33.7188 233.586 34.0938C233.43 34.4688 233.352 34.875 233.352 35.3125C233.352 35.9219 233.508 36.4375 233.82 36.8594C234.133 37.2656 234.539 37.625 235.039 37.9375C235.539 38.25 236.109 38.5312 236.75 38.7812C237.391 39.0312 238.039 39.2891 238.695 39.5547C239.367 39.8203 240.023 40.1172 240.664 40.4453C241.32 40.7734 241.898 41.1719 242.398 41.6406C242.898 42.1094 243.297 42.6719 243.594 43.3281C243.906 43.9844 244.062 44.7656 244.062 45.6719Z" fill="white"/>
<defs>
<filter id="filter0_d_23_61" x="0" y="0" width="270" height="80" filterUnits="userSpaceOnUse" color-interpolation-filters="sRGB">
<feFlood flood-opacity="0" result="BackgroundImageFix"/>
<feColorMatrix in="SourceAlpha" type="matrix" values="0 0 0 0 0 0 0 0 0 0 0 0 0 0 0 0 0 0 127 0" result="hardAlpha"/>
<feMorphology radius="3" operator="dilate" in="SourceAlpha" result="effect1_dropShadow_23_61"/>
<feOffset dx="4" dy="4"/>
<feGaussianBlur stdDeviation="5"/>
<feComposite in2="hardAlpha" operator="out"/>
<feColorMatrix type="matrix" values="0 0 0 0 0.54902 0 0 0 0 0.133333 0 0 0 0 0.133333 0 0 0 1 0"/>
<feBlend mode="normal" in2="BackgroundImageFix" result="effect1_dropShadow_23_61"/>
<feBlend mode="normal" in="SourceGraphic" in2="effect1_dropShadow_23_61" result="shape"/>
</filter>
</defs>
</svg>
