<svg width="447" height="100" viewBox="0 0 447 100" fill="none" xmlns="http://www.w3.org/2000/svg">
<g filter="url(#filter0_d_23_44)">
<rect x="9" y="9" width="178" height="74" rx="3" fill="#252020"/>
</g>
<path d="M63.4688 64.5642C63.4688 64.7309 63.4271 64.8767 63.3438 65.0017C63.2604 65.1059 63.125 65.1996 62.9375 65.283C62.75 65.3663 62.4896 65.4288 62.1562 65.4705C61.8229 65.5121 61.4062 65.533 60.9062 65.533C60.3854 65.533 59.9583 65.5121 59.625 65.4705C59.2917 65.4288 59.0208 65.3663 58.8125 65.283C58.625 65.1996 58.4896 65.1059 58.4062 65.0017C58.3229 64.8767 58.2812 64.7309 58.2812 64.5642V47.4705C58.2812 46.283 58.1771 45.1996 57.9688 44.2205C57.7604 43.2413 57.4271 42.3975 56.9688 41.6892C56.5104 40.9809 55.9271 40.4392 55.2188 40.0642C54.5104 39.6892 53.6771 39.5017 52.7188 39.5017C51.5312 39.5017 50.3333 39.96 49.125 40.8767C47.9375 41.7934 46.625 43.1371 45.1875 44.908V64.5642C45.1875 64.7309 45.1458 64.8767 45.0625 65.0017C44.9792 65.1059 44.8333 65.1996 44.625 65.283C44.4375 65.3663 44.1771 65.4288 43.8438 65.4705C43.5104 65.5121 43.0938 65.533 42.5938 65.533C42.1146 65.533 41.6979 65.5121 41.3438 65.4705C41.0104 65.4288 40.7396 65.3663 40.5312 65.283C40.3438 65.1996 40.2083 65.1059 40.125 65.0017C40.0625 64.8767 40.0312 64.7309 40.0312 64.5642V47.4705C40.0312 46.283 39.9167 45.1996 39.6875 44.2205C39.4583 43.2413 39.1146 42.3975 38.6562 41.6892C38.1979 40.9809 37.6146 40.4392 36.9062 40.0642C36.2188 39.6892 35.3958 39.5017 34.4375 39.5017C33.25 39.5017 32.0521 39.96 30.8438 40.8767C29.6354 41.7934 28.3229 43.1371 26.9062 44.908V64.5642C26.9062 64.7309 26.8646 64.8767 26.7812 65.0017C26.6979 65.1059 26.5625 65.1996 26.375 65.283C26.1875 65.3663 25.9271 65.4288 25.5938 65.4705C25.2604 65.5121 24.8333 65.533 24.3125 65.533C23.8125 65.533 23.3958 65.5121 23.0625 65.4705C22.7292 65.4288 22.4583 65.3663 22.25 65.283C22.0625 65.1996 21.9271 65.1059 21.8438 65.0017C21.7812 64.8767 21.75 64.7309 21.75 64.5642V36.4392C21.75 36.2725 21.7812 36.1371 21.8438 36.033C21.9062 35.908 22.0312 35.8038 22.2188 35.7205C22.4062 35.6163 22.6458 35.5538 22.9375 35.533C23.2292 35.4913 23.6146 35.4705 24.0938 35.4705C24.5521 35.4705 24.9271 35.4913 25.2188 35.533C25.5312 35.5538 25.7708 35.6163 25.9375 35.7205C26.1042 35.8038 26.2188 35.908 26.2812 36.033C26.3646 36.1371 26.4062 36.2725 26.4062 36.4392V40.158C27.9896 38.3871 29.5208 37.0955 31 36.283C32.5 35.4496 34.0104 35.033 35.5312 35.033C36.6979 35.033 37.7396 35.1684 38.6562 35.4392C39.5938 35.71 40.4167 36.0955 41.125 36.5955C41.8333 37.0746 42.4375 37.658 42.9375 38.3455C43.4375 39.0121 43.8542 39.7621 44.1875 40.5955C45.125 39.5746 46.0104 38.71 46.8438 38.0017C47.6979 37.2934 48.5104 36.7205 49.2812 36.283C50.0729 35.8455 50.8333 35.533 51.5625 35.3455C52.3125 35.1371 53.0625 35.033 53.8125 35.033C55.625 35.033 57.1458 35.3559 58.375 36.0017C59.6042 36.6267 60.5938 37.4705 61.3438 38.533C62.1146 39.5955 62.6562 40.8455 62.9688 42.283C63.3021 43.6996 63.4688 45.1996 63.4688 46.783V64.5642ZM94.0625 64.5955C94.0625 64.8455 93.9792 65.033 93.8125 65.158C93.6458 65.283 93.4167 65.3767 93.125 65.4392C92.8333 65.5017 92.4062 65.533 91.8438 65.533C91.3021 65.533 90.8646 65.5017 90.5312 65.4392C90.2188 65.3767 89.9896 65.283 89.8438 65.158C89.6979 65.033 89.625 64.8455 89.625 64.5955V61.783C88.3958 63.0955 87.0208 64.1163 85.5 64.8455C84 65.5746 82.4062 65.9392 80.7188 65.9392C79.2396 65.9392 77.8958 65.7413 76.6875 65.3455C75.5 64.9705 74.4792 64.4184 73.625 63.6892C72.7917 62.96 72.1354 62.0642 71.6562 61.0017C71.1979 59.9392 70.9688 58.7309 70.9688 57.3767C70.9688 55.7934 71.2917 54.4184 71.9375 53.2517C72.5833 52.085 73.5104 51.1163 74.7188 50.3455C75.9271 49.5746 77.4062 49.0017 79.1562 48.6267C80.9062 48.2309 82.875 48.033 85.0625 48.033H88.9375V45.8455C88.9375 44.7621 88.8229 43.8038 88.5938 42.9705C88.3646 42.1371 87.9896 41.4496 87.4688 40.908C86.9688 40.3455 86.3125 39.9288 85.5 39.658C84.6875 39.3663 83.6875 39.2205 82.5 39.2205C81.2292 39.2205 80.0833 39.3767 79.0625 39.6892C78.0625 39.9809 77.1771 40.3142 76.4062 40.6892C75.6562 41.0434 75.0208 41.3767 74.5 41.6892C74 41.9809 73.625 42.1267 73.375 42.1267C73.2083 42.1267 73.0625 42.085 72.9375 42.0017C72.8125 41.9184 72.6979 41.7934 72.5938 41.6267C72.5104 41.46 72.4479 41.2517 72.4062 41.0017C72.3646 40.7309 72.3438 40.4392 72.3438 40.1267C72.3438 39.6059 72.375 39.1996 72.4375 38.908C72.5208 38.5955 72.6979 38.3038 72.9688 38.033C73.2604 37.7621 73.75 37.4496 74.4375 37.0955C75.125 36.7205 75.9167 36.3871 76.8125 36.0955C77.7083 35.783 78.6875 35.533 79.75 35.3455C80.8125 35.1371 81.8854 35.033 82.9688 35.033C84.9896 35.033 86.7083 35.2621 88.125 35.7205C89.5417 36.1788 90.6875 36.8559 91.5625 37.7517C92.4375 38.6267 93.0729 39.7205 93.4688 41.033C93.8646 42.3455 94.0625 43.8767 94.0625 45.6267V64.5955ZM88.9375 51.7517H84.5312C83.1146 51.7517 81.8854 51.8767 80.8438 52.1267C79.8021 52.3559 78.9375 52.71 78.25 53.1892C77.5625 53.6475 77.0521 54.21 76.7188 54.8767C76.4062 55.5225 76.25 56.2725 76.25 57.1267C76.25 58.585 76.7083 59.7517 77.625 60.6267C78.5625 61.4809 79.8646 61.908 81.5312 61.908C82.8854 61.908 84.1354 61.5642 85.2812 60.8767C86.4479 60.1892 87.6667 59.1371 88.9375 57.7205V51.7517Z" fill="white"/>
<path d="M136.188 50.283C136.188 52.7621 135.823 54.9809 135.094 56.9392C134.365 58.8975 133.292 60.5538 131.875 61.908C130.458 63.2621 128.708 64.2934 126.625 65.0017C124.542 65.71 122.146 66.0642 119.438 66.0642C116.896 66.0642 114.615 65.7517 112.594 65.1267C110.573 64.4809 108.865 63.5121 107.469 62.2205C106.073 60.9288 105 59.3246 104.25 57.408C103.521 55.4705 103.156 53.21 103.156 50.6267V26.033C103.156 25.8246 103.219 25.6371 103.344 25.4705C103.469 25.3038 103.688 25.1684 104 25.0642C104.333 24.96 104.76 24.8767 105.281 24.8142C105.802 24.7517 106.469 24.7205 107.281 24.7205C108.073 24.7205 108.729 24.7517 109.25 24.8142C109.771 24.8767 110.188 24.96 110.5 25.0642C110.812 25.1684 111.031 25.3038 111.156 25.4705C111.302 25.6371 111.375 25.8246 111.375 26.033V49.908C111.375 51.5121 111.573 52.908 111.969 54.0955C112.365 55.2621 112.927 56.2309 113.656 57.0017C114.406 57.7725 115.292 58.3559 116.312 58.7517C117.354 59.1267 118.51 59.3142 119.781 59.3142C121.073 59.3142 122.229 59.1163 123.25 58.7205C124.271 58.3246 125.135 57.7517 125.844 57.0017C126.552 56.2309 127.094 55.2934 127.469 54.1892C127.865 53.0642 128.062 51.7934 128.062 50.3767V26.033C128.062 25.8246 128.125 25.6371 128.25 25.4705C128.375 25.3038 128.594 25.1684 128.906 25.0642C129.219 24.96 129.635 24.8767 130.156 24.8142C130.698 24.7517 131.365 24.7205 132.156 24.7205C132.948 24.7205 133.594 24.7517 134.094 24.8142C134.615 24.8767 135.031 24.96 135.344 25.0642C135.656 25.1684 135.875 25.3038 136 25.4705C136.125 25.6371 136.188 25.8246 136.188 26.033V50.283ZM153.781 24.908C153.781 25.7205 153.74 26.4705 153.656 27.158C153.573 27.8246 153.438 28.46 153.25 29.0642C153.062 29.6684 152.823 30.2621 152.531 30.8455C152.24 31.408 151.875 31.9913 151.438 32.5955L147.25 38.5955C147.104 38.8038 146.938 38.9809 146.75 39.1267C146.583 39.2725 146.375 39.3975 146.125 39.5017C145.875 39.585 145.573 39.6475 145.219 39.6892C144.865 39.7309 144.417 39.7517 143.875 39.7517C143.271 39.7517 142.781 39.7309 142.406 39.6892C142.031 39.6475 141.76 39.5746 141.594 39.4705C141.427 39.3663 141.333 39.2309 141.312 39.0642C141.312 38.8767 141.365 38.6684 141.469 38.4392L145.281 29.8142V24.908C145.281 24.1996 145.365 23.6267 145.531 23.1892C145.698 22.7517 145.958 22.4184 146.312 22.1892C146.667 21.9392 147.115 21.783 147.656 21.7205C148.198 21.6371 148.854 21.5955 149.625 21.5955C150.354 21.5955 150.979 21.6371 151.5 21.7205C152.021 21.783 152.448 21.9392 152.781 22.1892C153.135 22.4184 153.385 22.7517 153.531 23.1892C153.698 23.6267 153.781 24.1996 153.781 24.908ZM177.031 56.408C177.031 57.9913 176.729 59.3871 176.125 60.5955C175.542 61.8038 174.708 62.8142 173.625 63.6267C172.542 64.4392 171.26 65.0434 169.781 65.4392C168.302 65.8559 166.698 66.0642 164.969 66.0642C163.927 66.0642 162.927 65.9809 161.969 65.8142C161.031 65.6684 160.188 65.4809 159.438 65.2517C158.688 65.0017 158.062 64.7517 157.562 64.5017C157.062 64.2517 156.698 64.0225 156.469 63.8142C156.24 63.585 156.062 63.2413 155.938 62.783C155.812 62.3038 155.75 61.6059 155.75 60.6892C155.75 60.085 155.771 59.6059 155.812 59.2517C155.854 58.8767 155.917 58.585 156 58.3767C156.083 58.1475 156.188 58.0017 156.312 57.9392C156.438 57.8559 156.594 57.8142 156.781 57.8142C157.01 57.8142 157.344 57.9496 157.781 58.2205C158.24 58.4705 158.802 58.7517 159.469 59.0642C160.135 59.3767 160.906 59.6684 161.781 59.9392C162.677 60.21 163.688 60.3455 164.812 60.3455C165.521 60.3455 166.146 60.2725 166.688 60.1267C167.25 59.9809 167.729 59.7725 168.125 59.5017C168.542 59.2309 168.854 58.8871 169.062 58.4705C169.271 58.0538 169.375 57.5746 169.375 57.033C169.375 56.408 169.177 55.8767 168.781 55.4392C168.406 54.9809 167.896 54.585 167.25 54.2517C166.625 53.9184 165.906 53.6059 165.094 53.3142C164.302 53.0225 163.479 52.6996 162.625 52.3455C161.792 51.9913 160.969 51.585 160.156 51.1267C159.365 50.6684 158.646 50.1059 158 49.4392C157.375 48.7725 156.865 47.9705 156.469 47.033C156.094 46.0955 155.906 44.9705 155.906 43.658C155.906 42.3246 156.167 41.1059 156.688 40.0017C157.208 38.8767 157.958 37.9184 158.938 37.1267C159.917 36.335 161.104 35.7205 162.5 35.283C163.917 34.8455 165.5 34.6267 167.25 34.6267C168.125 34.6267 168.969 34.6892 169.781 34.8142C170.615 34.9392 171.365 35.0955 172.031 35.283C172.698 35.4705 173.26 35.6788 173.719 35.908C174.177 36.1163 174.5 36.3038 174.688 36.4705C174.896 36.6163 175.042 36.7725 175.125 36.9392C175.208 37.085 175.271 37.2725 175.312 37.5017C175.354 37.71 175.385 37.9809 175.406 38.3142C175.448 38.6267 175.469 39.0225 175.469 39.5017C175.469 40.0642 175.448 40.5225 175.406 40.8767C175.385 41.2309 175.333 41.5121 175.25 41.7205C175.188 41.9288 175.094 42.0746 174.969 42.158C174.844 42.2205 174.698 42.2517 174.531 42.2517C174.344 42.2517 174.052 42.1475 173.656 41.9392C173.26 41.71 172.76 41.4705 172.156 41.2205C171.573 40.9705 170.885 40.7413 170.094 40.533C169.323 40.3038 168.438 40.1892 167.438 40.1892C166.729 40.1892 166.115 40.2621 165.594 40.408C165.073 40.5538 164.646 40.7621 164.312 41.033C163.979 41.3038 163.729 41.6267 163.562 42.0017C163.396 42.3559 163.312 42.7413 163.312 43.158C163.312 43.8038 163.51 44.3455 163.906 44.783C164.302 45.2205 164.823 45.6059 165.469 45.9392C166.115 46.2725 166.844 46.585 167.656 46.8767C168.49 47.1684 169.323 47.4913 170.156 47.8455C171.01 48.1788 171.844 48.5746 172.656 49.033C173.49 49.4913 174.229 50.0538 174.875 50.7205C175.521 51.3871 176.042 52.1892 176.438 53.1267C176.833 54.0434 177.031 55.1371 177.031 56.408Z" fill="#BD4444"/>
<path d="M226.516 49.4844C226.516 51.9375 226.227 54.1484 225.648 56.1172C225.07 58.0859 224.203 59.7656 223.047 61.1562C221.906 62.5312 220.469 63.5938 218.734 64.3438C217 65.0781 214.977 65.4453 212.664 65.4453C210.383 65.4453 208.406 65.1094 206.734 64.4375C205.078 63.75 203.703 62.7578 202.609 61.4609C201.531 60.1641 200.727 58.5547 200.195 56.6328C199.664 54.7109 199.398 52.5 199.398 50C199.398 47.6094 199.688 45.4375 200.266 43.4844C200.844 41.5312 201.711 39.875 202.867 38.5156C204.023 37.1406 205.469 36.0859 207.203 35.3516C208.938 34.6016 210.961 34.2266 213.273 34.2266C215.508 34.2266 217.453 34.5625 219.109 35.2344C220.766 35.9062 222.141 36.8906 223.234 38.1875C224.344 39.4688 225.164 41.0625 225.695 42.9688C226.242 44.8594 226.516 47.0312 226.516 49.4844ZM222.273 49.7656C222.273 48.0469 222.117 46.4531 221.805 44.9844C221.508 43.5 221 42.2188 220.281 41.1406C219.578 40.0469 218.633 39.1953 217.445 38.5859C216.258 37.9766 214.789 37.6719 213.039 37.6719C211.289 37.6719 209.82 38 208.633 38.6562C207.445 39.3125 206.477 40.1875 205.727 41.2812C204.992 42.375 204.461 43.6562 204.133 45.125C203.82 46.5781 203.664 48.1094 203.664 49.7188C203.664 51.5 203.812 53.1406 204.109 54.6406C204.406 56.1406 204.906 57.4375 205.609 58.5312C206.312 59.6094 207.25 60.4531 208.422 61.0625C209.609 61.6562 211.094 61.9531 212.875 61.9531C214.641 61.9531 216.125 61.625 217.328 60.9688C218.531 60.3125 219.5 59.4297 220.234 58.3203C220.969 57.1953 221.492 55.8984 221.805 54.4297C222.117 52.9609 222.273 51.4062 222.273 49.7656ZM251.852 53.5391C251.852 55.3828 251.648 57.0391 251.242 58.5078C250.852 59.9766 250.266 61.2266 249.484 62.2578C248.719 63.2734 247.766 64.0625 246.625 64.625C245.484 65.1719 244.18 65.4453 242.711 65.4453C242.086 65.4453 241.508 65.3828 240.977 65.2578C240.445 65.1328 239.922 64.9375 239.406 64.6719C238.906 64.4062 238.406 64.0703 237.906 63.6641C237.406 63.2578 236.875 62.7812 236.312 62.2344V72.7812C236.312 72.9062 236.281 73.0156 236.219 73.1094C236.156 73.2031 236.055 73.2812 235.914 73.3438C235.773 73.4062 235.578 73.4531 235.328 73.4844C235.078 73.5156 234.758 73.5312 234.367 73.5312C233.992 73.5312 233.68 73.5156 233.43 73.4844C233.18 73.4531 232.977 73.4062 232.82 73.3438C232.68 73.2812 232.578 73.2031 232.516 73.1094C232.469 73.0156 232.445 72.9062 232.445 72.7812V43.3203C232.445 43.1797 232.469 43.0703 232.516 42.9922C232.562 42.8984 232.656 42.8203 232.797 42.7578C232.938 42.6953 233.117 42.6562 233.336 42.6406C233.555 42.6094 233.82 42.5938 234.133 42.5938C234.461 42.5938 234.727 42.6094 234.93 42.6406C235.148 42.6562 235.328 42.6953 235.469 42.7578C235.609 42.8203 235.703 42.8984 235.75 42.9922C235.812 43.0703 235.844 43.1797 235.844 43.3203V46.1562C236.484 45.5 237.102 44.9297 237.695 44.4453C238.289 43.9609 238.883 43.5625 239.477 43.25C240.086 42.9219 240.703 42.6797 241.328 42.5234C241.969 42.3516 242.641 42.2656 243.344 42.2656C244.875 42.2656 246.18 42.5625 247.258 43.1562C248.336 43.75 249.211 44.5625 249.883 45.5938C250.57 46.625 251.07 47.8281 251.383 49.2031C251.695 50.5625 251.852 52.0078 251.852 53.5391ZM247.773 53.9844C247.773 52.9062 247.688 51.8672 247.516 50.8672C247.359 49.8516 247.078 48.9531 246.672 48.1719C246.281 47.3906 245.75 46.7656 245.078 46.2969C244.406 45.8281 243.57 45.5938 242.57 45.5938C242.07 45.5938 241.578 45.6719 241.094 45.8281C240.609 45.9688 240.117 46.2031 239.617 46.5312C239.117 46.8438 238.594 47.2656 238.047 47.7969C237.5 48.3125 236.922 48.9531 236.312 49.7188V58.1094C237.375 59.4062 238.383 60.3984 239.336 61.0859C240.289 61.7734 241.289 62.1172 242.336 62.1172C243.305 62.1172 244.133 61.8828 244.82 61.4141C245.523 60.9453 246.086 60.3203 246.508 59.5391C246.945 58.7578 247.266 57.8828 247.469 56.9141C247.672 55.9453 247.773 54.9688 247.773 53.9844ZM275.664 52.9531C275.664 53.5625 275.508 54 275.195 54.2656C274.898 54.5156 274.555 54.6406 274.164 54.6406H260.336C260.336 55.8125 260.453 56.8672 260.688 57.8047C260.922 58.7422 261.312 59.5469 261.859 60.2188C262.406 60.8906 263.117 61.4062 263.992 61.7656C264.867 62.125 265.938 62.3047 267.203 62.3047C268.203 62.3047 269.094 62.2266 269.875 62.0703C270.656 61.8984 271.328 61.7109 271.891 61.5078C272.469 61.3047 272.938 61.125 273.297 60.9688C273.672 60.7969 273.953 60.7109 274.141 60.7109C274.25 60.7109 274.344 60.7422 274.422 60.8047C274.516 60.8516 274.586 60.9297 274.633 61.0391C274.68 61.1484 274.711 61.3047 274.727 61.5078C274.758 61.6953 274.773 61.9297 274.773 62.2109C274.773 62.4141 274.766 62.5938 274.75 62.75C274.734 62.8906 274.711 63.0234 274.68 63.1484C274.664 63.2578 274.625 63.3594 274.562 63.4531C274.516 63.5469 274.445 63.6406 274.352 63.7344C274.273 63.8125 274.023 63.9531 273.602 64.1562C273.18 64.3438 272.633 64.5312 271.961 64.7188C271.289 64.9062 270.508 65.0703 269.617 65.2109C268.742 65.3672 267.805 65.4453 266.805 65.4453C265.07 65.4453 263.547 65.2031 262.234 64.7188C260.938 64.2344 259.844 63.5156 258.953 62.5625C258.062 61.6094 257.391 60.4141 256.938 58.9766C256.484 57.5391 256.258 55.8672 256.258 53.9609C256.258 52.1484 256.492 50.5234 256.961 49.0859C257.43 47.6328 258.102 46.4062 258.977 45.4062C259.867 44.3906 260.938 43.6172 262.188 43.0859C263.438 42.5391 264.836 42.2656 266.383 42.2656C268.039 42.2656 269.445 42.5312 270.602 43.0625C271.773 43.5938 272.734 44.3125 273.484 45.2188C274.234 46.1094 274.781 47.1641 275.125 48.3828C275.484 49.5859 275.664 50.875 275.664 52.25V52.9531ZM271.773 51.8047C271.82 49.7734 271.367 48.1797 270.414 47.0234C269.477 45.8672 268.078 45.2891 266.219 45.2891C265.266 45.2891 264.43 45.4688 263.711 45.8281C262.992 46.1875 262.391 46.6641 261.906 47.2578C261.422 47.8516 261.047 48.5469 260.781 49.3438C260.516 50.125 260.367 50.9453 260.336 51.8047H271.773ZM299.734 64.4141C299.734 64.5391 299.703 64.6484 299.641 64.7422C299.578 64.8203 299.477 64.8906 299.336 64.9531C299.195 65.0156 299 65.0625 298.75 65.0938C298.5 65.125 298.188 65.1406 297.812 65.1406C297.422 65.1406 297.102 65.125 296.852 65.0938C296.602 65.0625 296.406 65.0156 296.266 64.9531C296.125 64.8906 296.023 64.8203 295.961 64.7422C295.898 64.6484 295.867 64.5391 295.867 64.4141V52.0625C295.867 50.8594 295.773 49.8906 295.586 49.1562C295.398 48.4219 295.125 47.7891 294.766 47.2578C294.406 46.7266 293.938 46.3203 293.359 46.0391C292.797 45.7578 292.141 45.6172 291.391 45.6172C290.422 45.6172 289.453 45.9609 288.484 46.6484C287.516 47.3359 286.5 48.3438 285.438 49.6719V64.4141C285.438 64.5391 285.406 64.6484 285.344 64.7422C285.281 64.8203 285.18 64.8906 285.039 64.9531C284.898 65.0156 284.703 65.0625 284.453 65.0938C284.203 65.125 283.883 65.1406 283.492 65.1406C283.117 65.1406 282.805 65.125 282.555 65.0938C282.305 65.0625 282.102 65.0156 281.945 64.9531C281.805 64.8906 281.703 64.8203 281.641 64.7422C281.594 64.6484 281.57 64.5391 281.57 64.4141V43.3203C281.57 43.1953 281.594 43.0938 281.641 43.0156C281.688 42.9219 281.781 42.8438 281.922 42.7812C282.062 42.7031 282.242 42.6562 282.461 42.6406C282.68 42.6094 282.969 42.5938 283.328 42.5938C283.672 42.5938 283.953 42.6094 284.172 42.6406C284.406 42.6562 284.586 42.7031 284.711 42.7812C284.836 42.8438 284.922 42.9219 284.969 43.0156C285.031 43.0938 285.062 43.1953 285.062 43.3203V46.1094C286.25 44.7812 287.43 43.8125 288.602 43.2031C289.789 42.5781 290.984 42.2656 292.188 42.2656C293.594 42.2656 294.773 42.5078 295.727 42.9922C296.695 43.4609 297.477 44.0938 298.07 44.8906C298.664 45.6875 299.086 46.625 299.336 47.7031C299.602 48.7656 299.734 50.0469 299.734 51.5469V64.4141ZM334.398 56.4922C334.398 57.9141 334.133 59.1797 333.602 60.2891C333.086 61.3984 332.359 62.3438 331.422 63.125C330.5 63.8906 329.406 64.4688 328.141 64.8594C326.891 65.25 325.539 65.4453 324.086 65.4453C323.07 65.4453 322.125 65.3594 321.25 65.1875C320.391 65.0156 319.617 64.8047 318.93 64.5547C318.258 64.3047 317.688 64.0469 317.219 63.7812C316.766 63.5156 316.445 63.2891 316.258 63.1016C316.086 62.9141 315.953 62.6797 315.859 62.3984C315.781 62.1016 315.742 61.7109 315.742 61.2266C315.742 60.8828 315.758 60.6016 315.789 60.3828C315.82 60.1484 315.867 59.9609 315.93 59.8203C315.992 59.6797 316.07 59.5859 316.164 59.5391C316.258 59.4766 316.367 59.4453 316.492 59.4453C316.711 59.4453 317.016 59.5781 317.406 59.8438C317.812 60.1094 318.328 60.3984 318.953 60.7109C319.578 61.0234 320.328 61.3203 321.203 61.6016C322.094 61.8672 323.117 62 324.273 62C325.148 62 325.945 61.8828 326.664 61.6484C327.398 61.4141 328.023 61.0859 328.539 60.6641C329.07 60.2266 329.477 59.6953 329.758 59.0703C330.039 58.4453 330.18 57.7344 330.18 56.9375C330.18 56.0781 329.984 55.3438 329.594 54.7344C329.203 54.125 328.688 53.5938 328.047 53.1406C327.406 52.6719 326.672 52.25 325.844 51.875C325.031 51.4844 324.195 51.0938 323.336 50.7031C322.477 50.2969 321.641 49.8516 320.828 49.3672C320.016 48.8828 319.289 48.3125 318.648 47.6562C318.008 47 317.484 46.2344 317.078 45.3594C316.688 44.4688 316.492 43.4062 316.492 42.1719C316.492 40.9062 316.719 39.7812 317.172 38.7969C317.641 37.7969 318.281 36.9609 319.094 36.2891C319.922 35.6172 320.898 35.1094 322.023 34.7656C323.164 34.4062 324.391 34.2266 325.703 34.2266C326.375 34.2266 327.047 34.2891 327.719 34.4141C328.406 34.5234 329.047 34.6797 329.641 34.8828C330.25 35.0703 330.789 35.2891 331.258 35.5391C331.727 35.7734 332.031 35.9688 332.172 36.125C332.328 36.2656 332.43 36.3828 332.477 36.4766C332.523 36.5547 332.562 36.6641 332.594 36.8047C332.625 36.9297 332.648 37.0859 332.664 37.2734C332.68 37.4609 332.688 37.7031 332.688 38C332.688 38.2812 332.672 38.5312 332.641 38.75C332.625 38.9688 332.594 39.1562 332.547 39.3125C332.5 39.4531 332.43 39.5625 332.336 39.6406C332.258 39.7031 332.164 39.7344 332.055 39.7344C331.883 39.7344 331.609 39.625 331.234 39.4062C330.875 39.1875 330.43 38.9453 329.898 38.6797C329.367 38.3984 328.734 38.1484 328 37.9297C327.281 37.6953 326.469 37.5781 325.562 37.5781C324.719 37.5781 323.984 37.6953 323.359 37.9297C322.734 38.1484 322.219 38.4453 321.812 38.8203C321.406 39.1953 321.102 39.6406 320.898 40.1562C320.695 40.6719 320.594 41.2188 320.594 41.7969C320.594 42.6406 320.789 43.3672 321.18 43.9766C321.57 44.5859 322.086 45.125 322.727 45.5938C323.383 46.0625 324.125 46.4922 324.953 46.8828C325.781 47.2734 326.625 47.6719 327.484 48.0781C328.344 48.4688 329.188 48.9062 330.016 49.3906C330.844 49.8594 331.578 50.4219 332.219 51.0781C332.875 51.7188 333.398 52.4844 333.789 53.375C334.195 54.25 334.398 55.2891 334.398 56.4922ZM359.359 53.6328C359.359 55.3516 359.133 56.9375 358.68 58.3906C358.227 59.8281 357.547 61.0703 356.641 62.1172C355.75 63.1641 354.625 63.9844 353.266 64.5781C351.922 65.1562 350.359 65.4453 348.578 65.4453C346.844 65.4453 345.328 65.1875 344.031 64.6719C342.75 64.1562 341.68 63.4062 340.82 62.4219C339.961 61.4375 339.32 60.2422 338.898 58.8359C338.477 57.4297 338.266 55.8359 338.266 54.0547C338.266 52.3359 338.484 50.7578 338.922 49.3203C339.375 47.8672 340.047 46.6172 340.938 45.5703C341.844 44.5234 342.969 43.7109 344.312 43.1328C345.656 42.5547 347.227 42.2656 349.023 42.2656C350.758 42.2656 352.266 42.5234 353.547 43.0391C354.844 43.5547 355.922 44.3047 356.781 45.2891C357.641 46.2734 358.281 47.4688 358.703 48.875C359.141 50.2812 359.359 51.8672 359.359 53.6328ZM355.281 53.8906C355.281 52.75 355.172 51.6719 354.953 50.6562C354.75 49.6406 354.406 48.75 353.922 47.9844C353.438 47.2188 352.781 46.6172 351.953 46.1797C351.125 45.7266 350.094 45.5 348.859 45.5C347.719 45.5 346.734 45.7031 345.906 46.1094C345.094 46.5156 344.422 47.0938 343.891 47.8438C343.359 48.5781 342.961 49.4531 342.695 50.4688C342.445 51.4844 342.32 52.5938 342.32 53.7969C342.32 54.9531 342.422 56.0391 342.625 57.0547C342.844 58.0703 343.195 58.9609 343.68 59.7266C344.18 60.4766 344.844 61.0781 345.672 61.5312C346.5 61.9688 347.531 62.1875 348.766 62.1875C349.891 62.1875 350.867 61.9844 351.695 61.5781C352.523 61.1719 353.203 60.6016 353.734 59.8672C354.266 59.1328 354.656 58.2578 354.906 57.2422C355.156 56.2266 355.281 55.1094 355.281 53.8906ZM383.125 64.4141C383.125 64.5391 383.094 64.6484 383.031 64.7422C382.984 64.8203 382.891 64.8906 382.75 64.9531C382.609 65.0156 382.422 65.0625 382.188 65.0938C381.969 65.125 381.695 65.1406 381.367 65.1406C381.008 65.1406 380.711 65.125 380.477 65.0938C380.258 65.0625 380.078 65.0156 379.938 64.9531C379.812 64.8906 379.727 64.8203 379.68 64.7422C379.633 64.6484 379.609 64.5391 379.609 64.4141V61.625C378.406 62.9531 377.219 63.9219 376.047 64.5312C374.875 65.1406 373.688 65.4453 372.484 65.4453C371.078 65.4453 369.891 65.2109 368.922 64.7422C367.969 64.2734 367.195 63.6406 366.602 62.8438C366.008 62.0312 365.578 61.0938 365.312 60.0312C365.062 58.9531 364.938 57.6484 364.938 56.1172V43.3203C364.938 43.1953 364.961 43.0938 365.008 43.0156C365.07 42.9219 365.18 42.8438 365.336 42.7812C365.492 42.7031 365.695 42.6562 365.945 42.6406C366.195 42.6094 366.508 42.5938 366.883 42.5938C367.258 42.5938 367.57 42.6094 367.82 42.6406C368.07 42.6562 368.266 42.7031 368.406 42.7812C368.562 42.8438 368.672 42.9219 368.734 43.0156C368.797 43.0938 368.828 43.1953 368.828 43.3203V55.6016C368.828 56.8359 368.914 57.8281 369.086 58.5781C369.273 59.3125 369.547 59.9453 369.906 60.4766C370.281 60.9922 370.75 61.3984 371.312 61.6953C371.875 61.9766 372.531 62.1172 373.281 62.1172C374.25 62.1172 375.211 61.7734 376.164 61.0859C377.133 60.3984 378.156 59.3906 379.234 58.0625V43.3203C379.234 43.1953 379.258 43.0938 379.305 43.0156C379.367 42.9219 379.477 42.8438 379.633 42.7812C379.789 42.7031 379.984 42.6562 380.219 42.6406C380.469 42.6094 380.789 42.5938 381.18 42.5938C381.555 42.5938 381.867 42.6094 382.117 42.6406C382.367 42.6562 382.562 42.7031 382.703 42.7812C382.844 42.8438 382.945 42.9219 383.008 43.0156C383.086 43.0938 383.125 43.1953 383.125 43.3203V64.4141ZM402.602 44.7031C402.602 45.0469 402.594 45.3359 402.578 45.5703C402.562 45.8047 402.531 45.9922 402.484 46.1328C402.438 46.2578 402.375 46.3594 402.297 46.4375C402.234 46.5 402.141 46.5312 402.016 46.5312C401.891 46.5312 401.734 46.5 401.547 46.4375C401.375 46.3594 401.172 46.2891 400.938 46.2266C400.719 46.1484 400.469 46.0781 400.188 46.0156C399.906 45.9531 399.602 45.9219 399.273 45.9219C398.883 45.9219 398.5 46 398.125 46.1562C397.75 46.3125 397.352 46.5703 396.93 46.9297C396.523 47.2891 396.094 47.7656 395.641 48.3594C395.188 48.9531 394.688 49.6797 394.141 50.5391V64.4141C394.141 64.5391 394.109 64.6484 394.047 64.7422C393.984 64.8203 393.883 64.8906 393.742 64.9531C393.602 65.0156 393.406 65.0625 393.156 65.0938C392.906 65.125 392.586 65.1406 392.195 65.1406C391.82 65.1406 391.508 65.125 391.258 65.0938C391.008 65.0625 390.805 65.0156 390.648 64.9531C390.508 64.8906 390.406 64.8203 390.344 64.7422C390.297 64.6484 390.273 64.5391 390.273 64.4141V43.3203C390.273 43.1953 390.297 43.0938 390.344 43.0156C390.391 42.9219 390.484 42.8438 390.625 42.7812C390.766 42.7031 390.945 42.6562 391.164 42.6406C391.383 42.6094 391.672 42.5938 392.031 42.5938C392.375 42.5938 392.656 42.6094 392.875 42.6406C393.109 42.6562 393.289 42.7031 393.414 42.7812C393.539 42.8438 393.625 42.9219 393.672 43.0156C393.734 43.0938 393.766 43.1953 393.766 43.3203V46.3906C394.344 45.5469 394.883 44.8594 395.383 44.3281C395.898 43.7969 396.383 43.3828 396.836 43.0859C397.289 42.7734 397.734 42.5625 398.172 42.4531C398.625 42.3281 399.078 42.2656 399.531 42.2656C399.734 42.2656 399.961 42.2812 400.211 42.3125C400.477 42.3281 400.75 42.3672 401.031 42.4297C401.312 42.4922 401.562 42.5625 401.781 42.6406C402.016 42.7188 402.18 42.7969 402.273 42.875C402.367 42.9531 402.43 43.0312 402.461 43.1094C402.492 43.1719 402.516 43.2578 402.531 43.3672C402.562 43.4766 402.578 43.6406 402.578 43.8594C402.594 44.0625 402.602 44.3438 402.602 44.7031ZM421.469 61.2031C421.469 61.4688 421.461 61.7031 421.445 61.9062C421.43 62.0938 421.398 62.2578 421.352 62.3984C421.32 62.5234 421.273 62.6406 421.211 62.75C421.164 62.8438 421.039 62.9922 420.836 63.1953C420.648 63.3828 420.32 63.625 419.852 63.9219C419.383 64.2031 418.852 64.4609 418.258 64.6953C417.68 64.9141 417.047 65.0938 416.359 65.2344C415.672 65.375 414.961 65.4453 414.227 65.4453C412.711 65.4453 411.367 65.1953 410.195 64.6953C409.023 64.1953 408.039 63.4688 407.242 62.5156C406.461 61.5469 405.859 60.3672 405.438 58.9766C405.031 57.5703 404.828 55.9531 404.828 54.125C404.828 52.0469 405.078 50.2656 405.578 48.7812C406.094 47.2812 406.789 46.0547 407.664 45.1016C408.555 44.1484 409.594 43.4453 410.781 42.9922C411.984 42.5234 413.281 42.2891 414.672 42.2891C415.344 42.2891 415.992 42.3516 416.617 42.4766C417.258 42.6016 417.844 42.7656 418.375 42.9688C418.906 43.1719 419.375 43.4062 419.781 43.6719C420.203 43.9375 420.508 44.1641 420.695 44.3516C420.883 44.5391 421.008 44.6875 421.07 44.7969C421.148 44.9062 421.211 45.0391 421.258 45.1953C421.305 45.3359 421.336 45.5 421.352 45.6875C421.367 45.875 421.375 46.1094 421.375 46.3906C421.375 47 421.305 47.4297 421.164 47.6797C421.023 47.9141 420.852 48.0312 420.648 48.0312C420.414 48.0312 420.141 47.9062 419.828 47.6562C419.531 47.3906 419.148 47.1016 418.68 46.7891C418.211 46.4766 417.641 46.1953 416.969 45.9453C416.312 45.6797 415.531 45.5469 414.625 45.5469C412.766 45.5469 411.336 46.2656 410.336 47.7031C409.352 49.125 408.859 51.1953 408.859 53.9141C408.859 55.2734 408.984 56.4688 409.234 57.5C409.5 58.5156 409.883 59.3672 410.383 60.0547C410.883 60.7422 411.492 61.2578 412.211 61.6016C412.945 61.9297 413.781 62.0938 414.719 62.0938C415.609 62.0938 416.391 61.9531 417.062 61.6719C417.734 61.3906 418.312 61.0859 418.797 60.7578C419.297 60.4141 419.711 60.1094 420.039 59.8438C420.383 59.5625 420.648 59.4219 420.836 59.4219C420.945 59.4219 421.039 59.4531 421.117 59.5156C421.195 59.5781 421.258 59.6875 421.305 59.8438C421.367 59.9844 421.406 60.1719 421.422 60.4062C421.453 60.625 421.469 60.8906 421.469 61.2031ZM444.602 52.9531C444.602 53.5625 444.445 54 444.133 54.2656C443.836 54.5156 443.492 54.6406 443.102 54.6406H429.273C429.273 55.8125 429.391 56.8672 429.625 57.8047C429.859 58.7422 430.25 59.5469 430.797 60.2188C431.344 60.8906 432.055 61.4062 432.93 61.7656C433.805 62.125 434.875 62.3047 436.141 62.3047C437.141 62.3047 438.031 62.2266 438.812 62.0703C439.594 61.8984 440.266 61.7109 440.828 61.5078C441.406 61.3047 441.875 61.125 442.234 60.9688C442.609 60.7969 442.891 60.7109 443.078 60.7109C443.188 60.7109 443.281 60.7422 443.359 60.8047C443.453 60.8516 443.523 60.9297 443.57 61.0391C443.617 61.1484 443.648 61.3047 443.664 61.5078C443.695 61.6953 443.711 61.9297 443.711 62.2109C443.711 62.4141 443.703 62.5938 443.688 62.75C443.672 62.8906 443.648 63.0234 443.617 63.1484C443.602 63.2578 443.562 63.3594 443.5 63.4531C443.453 63.5469 443.383 63.6406 443.289 63.7344C443.211 63.8125 442.961 63.9531 442.539 64.1562C442.117 64.3438 441.57 64.5312 440.898 64.7188C440.227 64.9062 439.445 65.0703 438.555 65.2109C437.68 65.3672 436.742 65.4453 435.742 65.4453C434.008 65.4453 432.484 65.2031 431.172 64.7188C429.875 64.2344 428.781 63.5156 427.891 62.5625C427 61.6094 426.328 60.4141 425.875 58.9766C425.422 57.5391 425.195 55.8672 425.195 53.9609C425.195 52.1484 425.43 50.5234 425.898 49.0859C426.367 47.6328 427.039 46.4062 427.914 45.4062C428.805 44.3906 429.875 43.6172 431.125 43.0859C432.375 42.5391 433.773 42.2656 435.32 42.2656C436.977 42.2656 438.383 42.5312 439.539 43.0625C440.711 43.5938 441.672 44.3125 442.422 45.2188C443.172 46.1094 443.719 47.1641 444.062 48.3828C444.422 49.5859 444.602 50.875 444.602 52.25V52.9531ZM440.711 51.8047C440.758 49.7734 440.305 48.1797 439.352 47.0234C438.414 45.8672 437.016 45.2891 435.156 45.2891C434.203 45.2891 433.367 45.4688 432.648 45.8281C431.93 46.1875 431.328 46.6641 430.844 47.2578C430.359 47.8516 429.984 48.5469 429.719 49.3438C429.453 50.125 429.305 50.9453 429.273 51.8047H440.711Z" fill="#BD4444"/>
<defs>
<filter id="filter0_d_23_44" x="0" y="0" width="204" height="100" filterUnits="userSpaceOnUse" color-interpolation-filters="sRGB">
<feFlood flood-opacity="0" result="BackgroundImageFix"/>
<feColorMatrix in="SourceAlpha" type="matrix" values="0 0 0 0 0 0 0 0 0 0 0 0 0 0 0 0 0 0 127 0" result="hardAlpha"/>
<feMorphology radius="3" operator="dilate" in="SourceAlpha" result="effect1_dropShadow_23_44"/>
<feOffset dx="4" dy="4"/>
<feGaussianBlur stdDeviation="5"/>
<feComposite in2="hardAlpha" operator="out"/>
<feColorMatrix type="matrix" values="0 0 0 0 0.741176 0 0 0 0 0.266667 0 0 0 0 0.266667 0 0 0 1 0"/>
<feBlend mode="normal" in2="BackgroundImageFix" result="effect1_dropShadow_23_44"/>
<feBlend mode="normal" in="SourceGraphic" in2="effect1_dropShadow_23_44" result="shape"/>
</filter>
</defs>
</svg>
