<svg width="150" height="80" viewBox="0 0 150 80" fill="none" xmlns="http://www.w3.org/2000/svg">
<g filter="url(#filter0_d_23_57)">
<rect x="9" y="9" width="124" height="54" rx="3" fill="#252020"/>
</g>
<path d="M39.7344 23.4062C39.7344 23.7031 39.7188 23.9609 39.6875 24.1797C39.6562 24.3984 39.6016 24.5781 39.5234 24.7188C39.4609 24.8438 39.375 24.9375 39.2656 25C39.1719 25.0625 39.0625 25.0938 38.9375 25.0938H30.4062V51.3906C30.4062 51.5156 30.375 51.625 30.3125 51.7188C30.25 51.8125 30.1406 51.8906 29.9844 51.9531C29.8281 52 29.6172 52.0391 29.3516 52.0703C29.1016 52.1172 28.7812 52.1406 28.3906 52.1406C28.0156 52.1406 27.6953 52.1172 27.4297 52.0703C27.1641 52.0391 26.9531 52 26.7969 51.9531C26.6406 51.8906 26.5312 51.8125 26.4688 51.7188C26.4062 51.625 26.375 51.5156 26.375 51.3906V25.0938H17.8438C17.7188 25.0938 17.6016 25.0625 17.4922 25C17.3984 24.9375 17.3203 24.8438 17.2578 24.7188C17.1953 24.5781 17.1406 24.3984 17.0938 24.1797C17.0625 23.9609 17.0469 23.7031 17.0469 23.4062C17.0469 23.1094 17.0625 22.8516 17.0938 22.6328C17.1406 22.3984 17.1953 22.2109 17.2578 22.0703C17.3203 21.9297 17.3984 21.8281 17.4922 21.7656C17.6016 21.7031 17.7188 21.6719 17.8438 21.6719H38.9375C39.0625 21.6719 39.1719 21.7031 39.2656 21.7656C39.375 21.8281 39.4609 21.9297 39.5234 22.0703C39.6016 22.2109 39.6562 22.3984 39.6875 22.6328C39.7188 22.8516 39.7344 23.1094 39.7344 23.4062ZM59.0234 40.6328C59.0234 42.3516 58.7969 43.9375 58.3438 45.3906C57.8906 46.8281 57.2109 48.0703 56.3047 49.1172C55.4141 50.1641 54.2891 50.9844 52.9297 51.5781C51.5859 52.1562 50.0234 52.4453 48.2422 52.4453C46.5078 52.4453 44.9922 52.1875 43.6953 51.6719C42.4141 51.1562 41.3438 50.4062 40.4844 49.4219C39.625 48.4375 38.9844 47.2422 38.5625 45.8359C38.1406 44.4297 37.9297 42.8359 37.9297 41.0547C37.9297 39.3359 38.1484 37.7578 38.5859 36.3203C39.0391 34.8672 39.7109 33.6172 40.6016 32.5703C41.5078 31.5234 42.6328 30.7109 43.9766 30.1328C45.3203 29.5547 46.8906 29.2656 48.6875 29.2656C50.4219 29.2656 51.9297 29.5234 53.2109 30.0391C54.5078 30.5547 55.5859 31.3047 56.4453 32.2891C57.3047 33.2734 57.9453 34.4688 58.3672 35.875C58.8047 37.2812 59.0234 38.8672 59.0234 40.6328ZM54.9453 40.8906C54.9453 39.75 54.8359 38.6719 54.6172 37.6562C54.4141 36.6406 54.0703 35.75 53.5859 34.9844C53.1016 34.2188 52.4453 33.6172 51.6172 33.1797C50.7891 32.7266 49.7578 32.5 48.5234 32.5C47.3828 32.5 46.3984 32.7031 45.5703 33.1094C44.7578 33.5156 44.0859 34.0938 43.5547 34.8438C43.0234 35.5781 42.625 36.4531 42.3594 37.4688C42.1094 38.4844 41.9844 39.5938 41.9844 40.7969C41.9844 41.9531 42.0859 43.0391 42.2891 44.0547C42.5078 45.0703 42.8594 45.9609 43.3438 46.7266C43.8438 47.4766 44.5078 48.0781 45.3359 48.5312C46.1641 48.9688 47.1953 49.1875 48.4297 49.1875C49.5547 49.1875 50.5312 48.9844 51.3594 48.5781C52.1875 48.1719 52.8672 47.6016 53.3984 46.8672C53.9297 46.1328 54.3203 45.2578 54.5703 44.2422C54.8203 43.2266 54.9453 42.1094 54.9453 40.8906ZM84.3359 40.6328C84.3359 42.3516 84.1094 43.9375 83.6562 45.3906C83.2031 46.8281 82.5234 48.0703 81.6172 49.1172C80.7266 50.1641 79.6016 50.9844 78.2422 51.5781C76.8984 52.1562 75.3359 52.4453 73.5547 52.4453C71.8203 52.4453 70.3047 52.1875 69.0078 51.6719C67.7266 51.1562 66.6562 50.4062 65.7969 49.4219C64.9375 48.4375 64.2969 47.2422 63.875 45.8359C63.4531 44.4297 63.2422 42.8359 63.2422 41.0547C63.2422 39.3359 63.4609 37.7578 63.8984 36.3203C64.3516 34.8672 65.0234 33.6172 65.9141 32.5703C66.8203 31.5234 67.9453 30.7109 69.2891 30.1328C70.6328 29.5547 72.2031 29.2656 74 29.2656C75.7344 29.2656 77.2422 29.5234 78.5234 30.0391C79.8203 30.5547 80.8984 31.3047 81.7578 32.2891C82.6172 33.2734 83.2578 34.4688 83.6797 35.875C84.1172 37.2812 84.3359 38.8672 84.3359 40.6328ZM80.2578 40.8906C80.2578 39.75 80.1484 38.6719 79.9297 37.6562C79.7266 36.6406 79.3828 35.75 78.8984 34.9844C78.4141 34.2188 77.7578 33.6172 76.9297 33.1797C76.1016 32.7266 75.0703 32.5 73.8359 32.5C72.6953 32.5 71.7109 32.7031 70.8828 33.1094C70.0703 33.5156 69.3984 34.0938 68.8672 34.8438C68.3359 35.5781 67.9375 36.4531 67.6719 37.4688C67.4219 38.4844 67.2969 39.5938 67.2969 40.7969C67.2969 41.9531 67.3984 43.0391 67.6016 44.0547C67.8203 45.0703 68.1719 45.9609 68.6562 46.7266C69.1562 47.4766 69.8203 48.0781 70.6484 48.5312C71.4766 48.9688 72.5078 49.1875 73.7422 49.1875C74.8672 49.1875 75.8438 48.9844 76.6719 48.5781C77.5 48.1719 78.1797 47.6016 78.7109 46.8672C79.2422 46.1328 79.6328 45.2578 79.8828 44.2422C80.1328 43.2266 80.2578 42.1094 80.2578 40.8906ZM93.8984 51.4141C93.8984 51.5391 93.8672 51.6484 93.8047 51.7422C93.7422 51.8203 93.6406 51.8906 93.5 51.9531C93.3594 52.0156 93.1641 52.0625 92.9141 52.0938C92.6641 52.125 92.3438 52.1406 91.9531 52.1406C91.5781 52.1406 91.2656 52.125 91.0156 52.0938C90.7656 52.0625 90.5625 52.0156 90.4062 51.9531C90.2656 51.8906 90.1641 51.8203 90.1016 51.7422C90.0547 51.6484 90.0312 51.5391 90.0312 51.4141V20.1016C90.0312 19.9766 90.0547 19.8672 90.1016 19.7734C90.1641 19.6797 90.2656 19.6016 90.4062 19.5391C90.5625 19.4766 90.7656 19.4297 91.0156 19.3984C91.2656 19.3672 91.5781 19.3516 91.9531 19.3516C92.3438 19.3516 92.6641 19.3672 92.9141 19.3984C93.1641 19.4297 93.3594 19.4766 93.5 19.5391C93.6406 19.6016 93.7422 19.6797 93.8047 19.7734C93.8672 19.8672 93.8984 19.9766 93.8984 20.1016V51.4141ZM106.156 21.1094C106.156 21.5938 106.133 22.0391 106.086 22.4453C106.039 22.8359 105.961 23.2188 105.852 23.5938C105.742 23.9531 105.594 24.3125 105.406 24.6719C105.234 25.0156 105.016 25.375 104.75 25.75L101.539 30.5781C101.461 30.6875 101.367 30.7891 101.258 30.8828C101.164 30.9766 101.039 31.0547 100.883 31.1172C100.742 31.1641 100.57 31.2031 100.367 31.2344C100.18 31.25 99.9375 31.2578 99.6406 31.2578C99.375 31.2578 99.1484 31.25 98.9609 31.2344C98.7891 31.2031 98.6641 31.1641 98.5859 31.1172C98.5078 31.0547 98.4609 30.9766 98.4453 30.8828C98.4453 30.7891 98.4766 30.6719 98.5391 30.5312L101.656 24.0859V21.1094C101.656 20.7031 101.695 20.375 101.773 20.125C101.867 19.875 102.008 19.6797 102.195 19.5391C102.383 19.3984 102.617 19.3047 102.898 19.2578C103.18 19.2109 103.523 19.1875 103.93 19.1875C104.32 19.1875 104.656 19.2109 104.938 19.2578C105.219 19.3047 105.445 19.3984 105.617 19.5391C105.805 19.6797 105.938 19.875 106.016 20.125C106.109 20.375 106.156 20.7031 106.156 21.1094ZM123.336 45.6719C123.336 46.75 123.133 47.7109 122.727 48.5547C122.336 49.3984 121.773 50.1094 121.039 50.6875C120.305 51.2656 119.43 51.7031 118.414 52C117.398 52.2969 116.281 52.4453 115.062 52.4453C114.312 52.4453 113.594 52.3828 112.906 52.2578C112.234 52.1484 111.625 52.0078 111.078 51.8359C110.547 51.6484 110.094 51.4609 109.719 51.2734C109.344 51.0703 109.07 50.8906 108.898 50.7344C108.727 50.5781 108.602 50.3594 108.523 50.0781C108.445 49.7969 108.406 49.4141 108.406 48.9297C108.406 48.6328 108.422 48.3828 108.453 48.1797C108.484 47.9766 108.523 47.8125 108.57 47.6875C108.617 47.5625 108.68 47.4766 108.758 47.4297C108.852 47.3672 108.953 47.3359 109.062 47.3359C109.234 47.3359 109.484 47.4453 109.812 47.6641C110.156 47.8672 110.57 48.0938 111.055 48.3438C111.555 48.5938 112.141 48.8281 112.812 49.0469C113.484 49.25 114.258 49.3516 115.133 49.3516C115.789 49.3516 116.383 49.2812 116.914 49.1406C117.445 49 117.906 48.7969 118.297 48.5312C118.688 48.25 118.984 47.8984 119.188 47.4766C119.406 47.0547 119.516 46.5547 119.516 45.9766C119.516 45.3828 119.359 44.8828 119.047 44.4766C118.75 44.0703 118.352 43.7109 117.852 43.3984C117.352 43.0859 116.789 42.8125 116.164 42.5781C115.539 42.3281 114.891 42.0703 114.219 41.8047C113.562 41.5391 112.914 41.2422 112.273 40.9141C111.648 40.5703 111.086 40.1562 110.586 39.6719C110.086 39.1875 109.68 38.6094 109.367 37.9375C109.07 37.2656 108.922 36.4609 108.922 35.5234C108.922 34.6953 109.078 33.9062 109.391 33.1562C109.719 32.3906 110.203 31.7266 110.844 31.1641C111.484 30.5859 112.281 30.125 113.234 29.7812C114.203 29.4375 115.328 29.2656 116.609 29.2656C117.172 29.2656 117.734 29.3125 118.297 29.4062C118.859 29.5 119.367 29.6172 119.82 29.7578C120.273 29.8984 120.656 30.0547 120.969 30.2266C121.297 30.3828 121.539 30.5234 121.695 30.6484C121.867 30.7734 121.977 30.8828 122.023 30.9766C122.086 31.0703 122.125 31.1797 122.141 31.3047C122.172 31.4141 122.195 31.5547 122.211 31.7266C122.242 31.8984 122.258 32.1094 122.258 32.3594C122.258 32.625 122.242 32.8594 122.211 33.0625C122.195 33.25 122.156 33.4062 122.094 33.5312C122.047 33.6562 121.984 33.75 121.906 33.8125C121.828 33.8594 121.742 33.8828 121.648 33.8828C121.508 33.8828 121.305 33.7969 121.039 33.625C120.773 33.4531 120.43 33.2734 120.008 33.0859C119.586 32.8828 119.086 32.6953 118.508 32.5234C117.945 32.3516 117.297 32.2656 116.562 32.2656C115.906 32.2656 115.328 32.3438 114.828 32.5C114.328 32.6406 113.914 32.8516 113.586 33.1328C113.273 33.3984 113.031 33.7188 112.859 34.0938C112.703 34.4688 112.625 34.875 112.625 35.3125C112.625 35.9219 112.781 36.4375 113.094 36.8594C113.406 37.2656 113.812 37.625 114.312 37.9375C114.812 38.25 115.383 38.5312 116.023 38.7812C116.664 39.0312 117.312 39.2891 117.969 39.5547C118.641 39.8203 119.297 40.1172 119.938 40.4453C120.594 40.7734 121.172 41.1719 121.672 41.6406C122.172 42.1094 122.57 42.6719 122.867 43.3281C123.18 43.9844 123.336 44.7656 123.336 45.6719Z" fill="white"/>
<defs>
<filter id="filter0_d_23_57" x="0" y="0" width="150" height="80" filterUnits="userSpaceOnUse" color-interpolation-filters="sRGB">
<feFlood flood-opacity="0" result="BackgroundImageFix"/>
<feColorMatrix in="SourceAlpha" type="matrix" values="0 0 0 0 0 0 0 0 0 0 0 0 0 0 0 0 0 0 127 0" result="hardAlpha"/>
<feMorphology radius="3" operator="dilate" in="SourceAlpha" result="effect1_dropShadow_23_57"/>
<feOffset dx="4" dy="4"/>
<feGaussianBlur stdDeviation="5"/>
<feComposite in2="hardAlpha" operator="out"/>
<feColorMatrix type="matrix" values="0 0 0 0 0.0588235 0 0 0 0 0.0509804 0 0 0 0 0.509804 0 0 0 1 0"/>
<feBlend mode="normal" in2="BackgroundImageFix" result="effect1_dropShadow_23_57"/>
<feBlend mode="normal" in="SourceGraphic" in2="effect1_dropShadow_23_57" result="shape"/>
</filter>
</defs>
</svg>
